<?xml version="1.0"?>
<svg xmlns="http://www.w3.org/2000/svg" xmlns:xlink="http://www.w3.org/1999/xlink" version="1.1" id="Capa_1" x="0px" y="0px" viewBox="0 0 512 512" style="enable-background:new 0 0 512 512;" xml:space="preserve" width="512px" height="512px"><g><g>
	<g>
		<path d="M446.191,68.825l-8.203-8.203c-3.162-3.162-7.365-4.903-11.837-4.903c-4.472,0-8.676,1.741-11.874,4.94L5.647,474.922    c-6.94,6.94-6.94,18.23,0,25.17l6.708,6.708C15.821,510.266,20.37,512,24.927,512c4.568,0,9.143-1.744,12.634-5.237    L446.192,92.498c3.162-3.162,4.903-7.365,4.903-11.837C451.095,76.19,449.354,71.987,446.191,68.825z M26.899,496.174    c-1.08,1.08-2.838,1.08-3.918,0l-6.708-6.708c-1.08-1.08-1.08-2.838,0.036-3.954l335.959-340.594l10.626,10.626L26.899,496.174z     M435.529,81.909l-62.081,62.937l-10.626-10.626l62.117-62.973c0.667-0.667,1.753-0.668,2.422,0l8.203,8.203    C436.234,80.118,436.234,81.205,435.529,81.909z" data-original="#000000" class="active-path" data-old_color="#000000" fill="#F2F2F2"/>
	</g>
</g><g>
	<g>
		<path d="M503.172,106.357c-6.373-21.24-20.518-43.574-39.831-62.886l-10.625,10.625c17.585,17.585,30.393,37.679,36.063,56.578    c5.189,17.298,3.703,31.168-4.185,39.056l10.625,10.625C507.199,148.376,510.024,129.198,503.172,106.357z" data-original="#000000" class="active-path" data-old_color="#000000" fill="#F2F2F2"/>
	</g>
</g><g>
	<g>
		<path d="M377.028,0.002l0.137,15.027c0.148-0.002,0.294-0.002,0.442-0.002c17.115,0,38.546,9.003,58.887,24.753l9.201-11.882    C422.558,9.983,397.525-0.169,377.028,0.002z" data-original="#000000" class="active-path" data-old_color="#000000" fill="#F2F2F2"/>
	</g>
</g><g>
	<g>
		<path d="M357.082,22.218l-10.626-10.625c-10.06,10.059-13.733,25.743-10.344,44.162l14.779-2.72    C349.144,43.546,348.802,30.498,357.082,22.218z" data-original="#000000" class="active-path" data-old_color="#000000" fill="#F2F2F2"/>
	</g>
</g><g>
	<g>
		<path d="M355.853,69.651l-13.933,5.629c2.78,6.881,6.344,13.869,10.592,20.772l12.797-7.877    C361.499,81.986,358.317,75.755,355.853,69.651z" data-original="#000000" class="active-path" data-old_color="#000000" fill="#F2F2F2"/>
	</g>
</g><g>
	<g>
		<polygon points="463.186,161.323 452.56,150.698 441.934,161.323 431.308,150.698 420.682,161.323 431.308,171.949     420.682,182.576 431.308,193.201 441.934,182.575 452.56,193.201 463.186,182.576 452.56,171.949   " data-original="#000000" class="active-path" data-old_color="#000000" fill="#F2F2F2"/>
	</g>
</g><g>
	<g>
		<polygon points="260.315,93.699 249.689,83.074 239.063,93.699 228.437,83.074 217.811,93.699 228.437,104.326 217.811,114.952     228.437,125.578 239.063,114.951 249.689,125.578 260.315,114.952 249.689,104.326   " data-original="#000000" class="active-path" data-old_color="#000000" fill="#F2F2F2"/>
	</g>
</g><g>
	<g>
		<polygon points="365.507,251.488 354.881,240.862 344.256,251.488 333.629,240.862 323.004,251.488 333.629,262.114     323.004,272.741 333.629,283.366 344.256,272.74 354.881,283.366 365.507,272.741 354.881,262.114   " data-original="#000000" class="active-path" data-old_color="#000000" fill="#F2F2F2"/>
	</g>
</g><g>
	<g>
		<rect x="381.82" y="239.568" width="15.027" height="15.027" data-original="#000000" class="active-path" data-old_color="#000000" fill="#F2F2F2"/>
	</g>
</g><g>
	<g>
		<rect x="411.875" y="318.462" width="15.027" height="15.027" data-original="#000000" class="active-path" data-old_color="#000000" fill="#F2F2F2"/>
	</g>
</g><g>
	<g>
		<rect x="261.6" y="346.644" width="15.027" height="15.027" data-original="#000000" class="active-path" data-old_color="#000000" fill="#F2F2F2"/>
	</g>
</g><g>
	<g>
		<rect x="471.985" y="224.541" width="15.027" height="15.027" data-original="#000000" class="active-path" data-old_color="#000000" fill="#F2F2F2"/>
	</g>
</g><g>
	<g>
		<rect x="449.444" y="119.358" width="15.027" height="15.027" data-original="#000000" class="active-path" data-old_color="#000000" fill="#F2F2F2"/>
	</g>
</g><g>
	<g>
		<rect x="396.848" y="224.541" width="15.027" height="15.027" data-original="#000000" class="active-path" data-old_color="#000000" fill="#F2F2F2"/>
	</g>
</g><g>
	<g>
		<rect x="276.628" y="119.358" width="15.027" height="15.027" data-original="#000000" class="active-path" data-old_color="#000000" fill="#F2F2F2"/>
	</g>
</g><g>
	<g>
		<rect x="496.53" y="6.841" width="15.028" height="15.027" data-original="#000000" class="active-path" data-old_color="#000000" fill="#F2F2F2"/>
	</g>
</g><g>
	<g>
		<rect x="291.655" y="29.193" width="15.027" height="15.027" data-original="#000000" class="active-path" data-old_color="#000000" fill="#F2F2F2"/>
	</g>
</g><g>
	<g>
		<rect x="178.949" y="134.376" width="15.027" height="15.027" data-original="#000000" class="active-path" data-old_color="#000000" fill="#F2F2F2"/>
	</g>
</g><g>
	<g>
		<rect x="193.977" y="224.541" width="15.027" height="15.027" data-original="#000000" class="active-path" data-old_color="#000000" fill="#F2F2F2"/>
	</g>
</g><g>
	<g>
		<rect x="261.6" y="134.376" width="15.027" height="15.027" data-original="#000000" class="active-path" data-old_color="#000000" fill="#F2F2F2"/>
	</g>
</g></g> </svg>
